<?xml version="1.0" standalone="no"?>
<!DOCTYPE svg PUBLIC "-//W3C//DTD SVG 20010904//EN"
 "http://www.w3.org/TR/2001/REC-SVG-20010904/DTD/svg10.dtd">
<svg version="1.0" xmlns="http://www.w3.org/2000/svg"
 width="512.000000pt" height="512.000000pt" viewBox="0 0 512.000000 512.000000"
 preserveAspectRatio="xMidYMid meet">
<metadata>
Created by potrace 1.14, written by Peter Selinger 2001-2017
</metadata>
<g transform="translate(0.000000,512.000000) scale(0.100000,-0.100000)"
fill="#000000" stroke="none">
<path d="M2100 5069 c-465 -37 -781 -117 -1090 -276 -313 -160 -502 -349 -665
-665 -173 -336 -252 -676 -285 -1232 -29 -512 13 -1066 111 -1434 98 -371 300
-724 515 -902 280 -232 647 -384 1077 -449 272 -41 362 -46 792 -46 431 0 537
6 802 46 433 65 805 221 1081 453 260 218 481 661 561 1121 40 237 70 611 70
885 0 370 -46 823 -110 1074 -78 305 -229 611 -404 817 -107 127 -292 260
-498 359 -286 138 -613 216 -1053 249 -161 13 -748 12 -904 0z m1370 -1189
c191 -31 358 -180 414 -369 14 -47 16 -130 16 -598 l0 -543 -323 0 c-356 0
-391 -4 -499 -62 -106 -56 -190 -154 -241 -281 -21 -49 -22 -73 -27 -437 l-5
-385 -565 -3 c-375 -1 -583 1 -617 9 -87 17 -172 66 -248 142 l-69 69 32 13
c51 22 128 101 152 157 44 102 22 235 -53 323 -32 39 -114 84 -169 93 l-43 8
-3 106 -3 106 51 11 c148 32 241 147 241 296 0 149 -106 274 -253 301 l-38 6
0 109 0 109 25 0 c46 0 131 40 174 82 149 143 114 395 -69 488 -47 24 -45 31
20 98 74 77 181 134 285 151 75 13 1736 13 1815 1z"/>
</g>
</svg>
